<svg width="81" height="81" viewBox="0 0 81 81" fill="none" xmlns="http://www.w3.org/2000/svg">
<g id="fluent-emoji-high-contrast:ballet-shoes">
<g id="Group">
<path id="Vector" d="M28.2646 48.1012C28.2646 48.8962 28.2246 49.6537 28.1396 50.3687C24.6051 47.7118 21.1293 44.9778 17.7146 42.1687C19.5471 40.3512 21.3446 38.5887 22.8946 37.0737C24.0246 35.9662 25.0246 34.9887 25.8046 34.2162C25.7521 34.6412 25.7246 35.0712 25.7246 35.5112C25.7246 38.4012 26.3496 40.0337 26.9746 41.6787C27.6171 43.3537 28.2646 45.0487 28.2646 48.1037M62.9271 50.3687C63.0121 49.6537 63.0521 48.8962 63.0521 48.1012C63.0521 45.0487 62.4021 43.3562 61.7621 41.6787C61.1346 40.0337 60.5121 38.4037 60.5121 35.5112C60.5121 35.0712 60.5371 34.6412 60.5921 34.2162C59.8121 34.9862 58.8171 35.9637 57.6846 37.0662L57.6821 37.0712C56.1321 38.5887 54.3321 40.3512 52.4996 42.1662C55.9151 44.9762 59.3918 47.711 62.9271 50.3687Z" fill="#2ECC71"/>
<path id="Vector_2" d="M26.0922 5.90112C15.3072 5.90112 9.60216 13.7011 6.69966 21.7261C3.79466 29.7611 3.33716 38.8086 3.33716 43.2261V68.0961C3.33716 70.1411 3.75966 72.6586 5.33466 74.7186C7.00216 76.8986 9.65216 78.1686 13.2497 78.1686H23.3747C29.7822 78.1686 34.2097 75.1411 36.9497 71.2786C37.4022 70.6411 37.8097 69.9786 38.1747 69.3036C38.3247 71.0786 38.8447 73.0511 40.1197 74.7186C41.7897 76.8986 44.4397 78.1686 48.0347 78.1686H58.1622C64.5697 78.1686 68.9972 75.1411 71.7372 71.2786C74.4047 67.5211 75.4821 62.9861 75.4821 59.6136C75.4821 57.5886 75.0147 55.4136 74.5547 53.2886L74.3172 52.1861C73.7747 49.5986 73.2597 46.7186 73.2597 43.2286C73.2597 40.0161 74.3297 37.1361 75.5997 33.8886L75.7421 33.5236C76.9272 30.4986 78.2822 27.0411 78.2822 23.2211C78.2822 15.2161 71.3522 5.90112 60.8822 5.90112C51.5022 5.90112 45.9672 11.7961 42.7747 18.6086C40.7447 12.0236 34.5847 5.90112 26.0922 5.90112ZM8.91716 34.2311C9.19216 34.5186 9.49466 34.8361 9.83716 35.1886C11.5153 36.8036 13.2402 38.3693 15.0097 39.8836C19.3847 35.7501 23.6961 31.5496 27.9422 27.2836L28.7947 26.4336C29.8147 24.4211 30.6947 22.4936 30.6947 20.5386C30.6947 18.0636 29.5872 16.0636 27.5597 14.7636C23.5997 12.2236 18.9972 12.6286 15.8097 15.5336C18.3447 12.6586 21.6847 10.8986 26.0922 10.8986C33.4047 10.8986 38.4947 17.5561 38.4947 23.2186C38.4947 26.0786 37.4497 28.7536 36.1547 32.0661C34.9147 35.2386 33.4722 38.9461 33.4722 43.2261C33.4722 47.2261 34.0697 50.5011 34.6372 53.2086L34.8997 54.4386C35.3622 56.6036 35.6972 58.1636 35.6972 59.6111C35.6972 62.0836 34.8647 65.5761 32.8722 68.3836C30.9522 71.0886 27.9697 73.1661 23.3772 73.1661H13.2497C10.9172 73.1661 9.86216 72.4061 9.30466 71.6786C8.65716 70.8286 8.33716 69.5611 8.33716 68.0936V53.9461C8.69466 56.5761 10.7447 57.9886 13.2947 57.9886H18.1597C23.0297 57.9886 25.7372 56.5261 27.0972 53.9836C22.8297 51.1586 18.6597 47.8011 15.1147 44.6786C12.9125 46.7259 10.6524 48.7101 8.33716 50.6286V46.1961C9.29716 45.2761 10.6172 44.0161 12.4572 42.2811C11.114 41.0398 9.79618 39.7712 8.50466 38.4761C8.59216 37.1586 8.72716 35.7261 8.91716 34.2311ZM47.2422 42.2811C45.8997 41.0398 44.5828 39.7712 43.2922 38.4761C43.3797 37.1586 43.5122 35.7261 43.7047 34.2311C43.9772 34.5186 44.2822 34.8361 44.6247 35.1886C46.3028 36.8036 48.0277 38.3693 49.7972 39.8836C54.465 35.4755 59.0606 30.9916 63.5822 26.4336C64.6022 24.4211 65.4822 22.4936 65.4822 20.5386C65.4822 18.0636 64.3722 16.0636 62.3447 14.7636C58.3847 12.2236 53.7822 12.6286 50.5947 15.5336C53.1322 12.6586 56.4697 10.8986 60.8797 10.8986C68.1922 10.9011 73.2822 17.5561 73.2822 23.2211C73.2822 26.0811 72.2372 28.7561 70.9422 32.0686C69.7021 35.2411 68.2597 38.9486 68.2597 43.2286C68.2597 47.2286 68.8572 50.5036 69.4247 53.2111L69.6847 54.4411C70.1497 56.6061 70.4847 58.1661 70.4847 59.6136C70.4847 62.0861 69.6522 65.5786 67.6597 68.3861C65.7397 71.0911 62.7572 73.1686 58.1622 73.1686H48.0372C45.7022 73.1686 44.6497 72.4086 44.0922 71.6811C43.4422 70.8311 43.1247 69.5636 43.1247 68.0961V53.9486C43.4797 56.5786 45.5297 57.9911 48.0822 57.9911H52.9447C57.8147 57.9911 60.5247 56.5286 61.8847 53.9861C57.6172 51.1611 53.4472 47.8036 49.9022 44.6811C47.7 46.7285 45.4399 48.7126 43.1247 50.6311V46.1986C44.0822 45.2786 45.4047 44.0186 47.2447 42.2836" fill="#2ECC71"/>
</g>
</g>
</svg>
