<svg width="81" height="80" viewBox="0 0 81 80" fill="none" xmlns="http://www.w3.org/2000/svg">
<g id="emojione:high-heeled-shoe" clip-path="url(#clip0_174_2210)">
<path id="Vector" d="M8.26611 35.125L10.7661 73.5L13.5161 72.5C13.5161 72.5 11.7661 46.875 18.2661 44.625L8.26611 35.125Z" fill="#ED4C5C"/>
<path id="Vector_2" d="M62.391 59.625C62.391 59.625 57.016 57.875 44.766 61.375C32.641 64.875 27.891 55.875 14.391 24C8.01598 9 5.01598 1 11.641 0H11.266C8.14098 0.25 6.26598 3.125 5.76598 4C2.64098 9.625 -2.35902 16.125 2.76598 26.875C2.76598 26.875 7.39098 44.75 7.39098 72.75L10.641 73.5C10.641 73.5 9.26598 42.625 13.016 41.5C13.016 41.5 16.266 44.875 25.141 62.375C33.266 78.25 41.141 80 48.891 80H77.641C79.141 79.625 80.641 78.625 80.641 74.5C80.641 70.25 71.141 63 62.391 59.625Z" fill="#2ECC71"/>
<path id="Vector_3" d="M14.3912 23.875C27.8912 55.75 32.6412 64.75 44.7662 61.25C52.3912 59.125 57.2662 59 60.0162 59.125C43.3912 50 41.5162 45.5 31.6412 24.5C21.2662 2.625 17.3912 0 11.6412 0C5.01624 1 8.01624 9 14.3912 23.875Z" fill="#94989B"/>
<path id="Vector_4" d="M14.3911 23.875C27.8911 55.75 32.6411 64.75 44.7661 61.25C45.1411 61.125 45.5161 61 45.7661 61C30.6411 50.5 23.1411 26.875 18.6411 19.125C16.1411 14.875 12.8911 13.625 10.1411 13.375C11.2661 16.5 12.6411 20 14.3911 23.875Z" fill="#D0D0D0"/>
</g>
<defs>
<clipPath id="clip0_174_2210">
<rect width="80" height="80" fill="white" transform="translate(0.641113)"/>
</clipPath>
</defs>
</svg>
