<svg width="157" height="52" viewBox="0 0 157 52" fill="none" xmlns="http://www.w3.org/2000/svg">
<g id="Olastore">
<path d="M54.3649 26.0172C54.3649 30.0035 53.6776 33.6003 52.303 36.8077C50.9285 39.9922 49.0269 42.6955 46.5985 44.9178C44.1701 47.14 41.2949 48.8468 37.973 50.0381C34.6511 51.2294 31.0542 51.8251 27.1825 51.8251C23.3107 51.8251 19.7139 51.2294 16.392 50.0381C13.07 48.8468 10.1949 47.14 7.76642 44.9178C5.33798 42.6955 3.43647 39.9922 2.06188 36.8077C0.687294 33.6003 0 30.0035 0 26.0172C0 21.9622 0.675839 18.3424 2.02752 15.1579C3.4021 11.9506 5.29216 9.24722 7.69769 7.04788C10.1261 4.82563 13.0013 3.1303 16.3232 1.96191C19.6451 0.770597 23.2649 0.174942 27.1825 0.174942C31.1 0.174942 34.7198 0.770597 38.0417 1.96191C41.3636 3.1303 44.2273 4.82563 46.6329 7.04788C49.0613 9.24722 50.9514 11.9506 52.303 15.1579C53.6776 18.3424 54.3649 21.9622 54.3649 26.0172ZM40.4816 26.0172C40.4816 24.5051 40.4129 22.9587 40.2754 21.378C40.138 19.7972 39.8859 18.2622 39.5194 16.7731C39.1528 15.2839 38.6488 13.8865 38.0073 12.5806C37.3888 11.2747 36.5869 10.1407 35.6018 9.17849C34.6167 8.19337 33.4254 7.42589 32.0279 6.87606C30.6533 6.30331 29.0382 6.01694 27.1825 6.01694C25.3039 6.01694 23.6658 6.30331 22.2683 6.87606C20.8708 7.42589 19.6795 8.18191 18.6944 9.14412C17.7093 10.1063 16.9074 11.2404 16.2889 12.5462C15.6703 13.8521 15.1777 15.2496 14.8112 16.7387C14.4675 18.2049 14.227 19.7399 14.0895 21.3436C13.9521 22.9244 13.8833 24.4822 13.8833 26.0172C13.8833 27.5292 13.9521 29.0756 14.0895 30.6564C14.227 32.2372 14.479 33.7721 14.8455 35.2613C15.2121 36.7275 15.7047 38.1136 16.3232 39.4194C16.9647 40.7253 17.778 41.8708 18.7631 42.8559C19.7482 43.8181 20.9281 44.5856 22.3027 45.1583C23.7002 45.7311 25.3268 46.0174 27.1825 46.0174C28.9923 46.0174 30.5731 45.7311 31.9248 45.1583C33.2765 44.5627 34.4449 43.7723 35.43 42.7871C36.4151 41.7791 37.2284 40.6222 37.8699 39.3163C38.5343 37.9875 39.0497 36.59 39.4163 35.1238C39.8058 33.6347 40.0807 32.1112 40.241 30.5533C40.4014 28.9955 40.4816 27.4834 40.4816 26.0172Z" fill="#F1F5F8"/>
<path d="M64.6706 50.8285H55.9591L52.303 18.5715L51.3637 16.7387H59.428L64.6706 50.8285Z" fill="#F1F5F8"/>
<path d="M80.8862 50.8285H76.5305V49.0501C76.015 49.7546 75.3922 50.2786 74.6619 50.6223C73.9403 50.9574 73.1456 51.1249 72.2779 51.1249C71.1438 51.1249 70.1301 50.923 69.2366 50.5192C68.3431 50.1154 67.5871 49.5656 66.9685 48.8697C66.35 48.1652 65.8774 47.3405 65.551 46.3954C65.2245 45.4504 65.0613 44.4367 65.0613 43.3542C65.0613 42.2717 65.2245 41.2579 65.551 40.3129C65.8774 39.3679 66.35 38.5474 66.9685 37.8515C67.5871 37.147 68.3431 36.5929 69.2366 36.1891C70.1301 35.7853 71.1438 35.5835 72.2779 35.5835C72.8535 35.5835 73.399 35.6694 73.9145 35.8412C74.4385 36.013 74.9154 36.2579 75.3449 36.5757C75.7831 36.885 76.1654 37.263 76.4918 37.7098C76.8269 38.1479 77.0889 38.6376 77.2779 39.1789L79.2109 35.9443H80.8862V50.8285ZM76.5047 43.3542C76.5047 42.9676 76.4832 42.5595 76.4403 42.1299C76.4059 41.7004 76.3415 41.2751 76.247 40.8541C76.1525 40.4332 76.0193 40.0337 75.8475 39.6557C75.6843 39.2691 75.4695 38.9297 75.2032 38.6376C74.9454 38.3369 74.6318 38.1007 74.2624 37.9288C73.893 37.757 73.4634 37.6711 72.9737 37.6711C72.484 37.6711 72.0588 37.7613 71.698 37.9417C71.3371 38.1136 71.0278 38.3498 70.7701 38.6505C70.5124 38.9426 70.2976 39.282 70.1258 39.6686C69.9625 40.0552 69.8337 40.4589 69.7392 40.8799C69.6447 41.3009 69.5759 41.7261 69.533 42.1557C69.4986 42.5767 69.4814 42.9762 69.4814 43.3542C69.4814 43.7322 69.4986 44.136 69.533 44.5655C69.5759 44.9951 69.6447 45.4203 69.7392 45.8413C69.8337 46.2623 69.9625 46.6661 70.1258 47.0527C70.2976 47.4393 70.5124 47.7829 70.7701 48.0836C71.0278 48.3757 71.3371 48.612 71.698 48.7924C72.0588 48.9642 72.484 49.0501 72.9737 49.0501C73.4205 49.0501 73.8157 48.9599 74.1593 48.7795C74.5116 48.5905 74.8166 48.3413 75.0743 48.0321C75.3406 47.7228 75.564 47.3705 75.7444 46.9753C75.9248 46.5802 76.0709 46.1721 76.1825 45.7511C76.2942 45.3301 76.3758 44.9135 76.4274 44.5011C76.4789 44.0801 76.5047 43.6978 76.5047 43.3542Z" fill="#F1F5F8"/>
<path d="M95.2312 46.0733C95.2312 46.7262 95.1367 47.3061 94.9477 47.813C94.7587 48.3199 94.501 48.7623 94.1745 49.1403C93.8481 49.5097 93.4615 49.8233 93.0147 50.0811C92.568 50.3302 92.0869 50.5321 91.5714 50.6867C91.0645 50.8414 90.5319 50.9531 89.9734 51.0218C89.415 51.0905 88.8609 51.1249 88.3111 51.1249C87.5722 51.1249 86.9193 51.0776 86.3523 50.9831C85.7852 50.8886 85.244 50.7383 84.7285 50.5321C84.2131 50.3173 83.6976 50.0424 83.1821 49.7073C82.6752 49.3723 82.1082 48.9642 81.4811 48.4831L84.0198 46.4083C84.2517 46.8465 84.5567 47.246 84.9347 47.6068C85.3213 47.959 85.7208 48.264 86.1332 48.5218C86.5456 48.7795 86.9451 48.9771 87.3317 49.1145C87.7183 49.252 88.0318 49.3207 88.2724 49.3207C88.47 49.3207 88.6934 49.3164 88.9425 49.3078C89.1916 49.2907 89.4451 49.2649 89.7028 49.2305C89.9606 49.1876 90.214 49.1274 90.4631 49.0501C90.7123 48.9728 90.9314 48.8697 91.1204 48.7408C91.318 48.6034 91.4726 48.4358 91.5843 48.2382C91.7046 48.0321 91.7647 47.7872 91.7647 47.5037C91.7647 47.2116 91.6874 46.9582 91.5327 46.7434C91.3867 46.52 91.1934 46.3267 90.9528 46.1635C90.7123 46.0002 90.4374 45.8628 90.1281 45.7511C89.8188 45.6394 89.5052 45.5406 89.1873 45.4547C88.8781 45.3688 88.5774 45.2958 88.2853 45.2356C87.9932 45.1669 87.7397 45.1025 87.525 45.0423C87.1298 44.9306 86.7131 44.819 86.2749 44.7073C85.8368 44.587 85.4029 44.4538 84.9734 44.3078C84.5438 44.1531 84.1314 43.9727 83.7363 43.7665C83.3496 43.5604 83.006 43.3155 82.7053 43.032C82.4132 42.7399 82.177 42.4005 81.9965 42.0139C81.8247 41.6187 81.7388 41.1591 81.7388 40.6351C81.7388 39.6728 81.9278 38.8696 82.3058 38.2252C82.6924 37.5723 83.1993 37.0525 83.8265 36.6659C84.4536 36.2707 85.1667 35.9915 85.9657 35.8283C86.7646 35.6651 87.5765 35.5835 88.4013 35.5835C88.9683 35.5835 89.5654 35.6436 90.1925 35.7639C90.8197 35.8756 91.4296 36.0474 92.0224 36.2793C92.6152 36.5027 93.1694 36.7776 93.6848 37.1041C94.2003 37.4306 94.6299 37.8043 94.9735 38.2252L92.4348 40.3129C92.2458 39.7974 91.9967 39.355 91.6874 38.9856C91.3867 38.6161 91.0559 38.3154 90.6951 38.0835C90.3429 37.8429 89.9777 37.6668 89.5997 37.5551C89.2303 37.4434 88.8867 37.3876 88.5688 37.3876C88.2595 37.3876 87.9116 37.4005 87.525 37.4263C87.1384 37.452 86.7732 37.5251 86.4296 37.6453C86.0945 37.7656 85.8067 37.9503 85.5662 38.1995C85.3342 38.44 85.2182 38.7751 85.2182 39.2046C85.2182 39.5139 85.287 39.7802 85.4244 40.0036C85.5705 40.2184 85.7595 40.4074 85.9914 40.5706C86.2234 40.7253 86.4854 40.8584 86.7775 40.9701C87.0782 41.0732 87.3832 41.1677 87.6925 41.2536C88.0018 41.3309 88.3025 41.3997 88.5946 41.4598C88.8867 41.52 89.1487 41.5844 89.3806 41.6531C89.7758 41.7648 90.1925 41.8808 90.6307 42.0011C91.0774 42.1127 91.5156 42.2459 91.9451 42.4005C92.3747 42.5466 92.787 42.7227 93.1822 42.9289C93.586 43.1265 93.9383 43.3713 94.239 43.6634C94.5396 43.9555 94.7802 44.2992 94.9606 44.6944C95.141 45.081 95.2312 45.5406 95.2312 46.0733Z" fill="#F1F5F8"/>
<path d="M103.595 50.8285H99.2261V37.6711H96.5199V35.9443H99.2261V30.4674H103.595V35.9443H108.105V37.6711H103.595V50.8285Z" fill="#F1F5F8"/>
<path d="M125.18 43.3542C125.18 44.1274 125.077 44.8533 124.871 45.532C124.665 46.2107 124.377 46.8379 124.007 47.4135C123.647 47.9891 123.208 48.5089 122.693 48.9728C122.177 49.4281 121.61 49.8147 120.992 50.1326C120.382 50.4505 119.725 50.6953 119.02 50.8671C118.324 51.039 117.607 51.1249 116.868 51.1249C116.129 51.1249 115.412 51.039 114.716 50.8671C114.02 50.6953 113.363 50.4505 112.744 50.1326C112.134 49.8147 111.572 49.4281 111.056 48.9728C110.541 48.5089 110.098 47.9891 109.729 47.4135C109.368 46.8379 109.084 46.2107 108.878 45.532C108.672 44.8447 108.569 44.1188 108.569 43.3542C108.569 42.5896 108.672 41.8679 108.878 41.1892C109.084 40.5019 109.368 39.8704 109.729 39.2948C110.098 38.7192 110.541 38.2038 111.056 37.7484C111.572 37.2845 112.134 36.8936 112.744 36.5757C113.363 36.2579 114.02 36.013 114.716 35.8412C115.412 35.6694 116.129 35.5835 116.868 35.5835C117.607 35.5835 118.324 35.6694 119.02 35.8412C119.725 36.013 120.382 36.2579 120.992 36.5757C121.61 36.8936 122.177 37.2845 122.693 37.7484C123.208 38.2038 123.647 38.7192 124.007 39.2948C124.377 39.8704 124.665 40.5019 124.871 41.1892C125.077 41.8679 125.18 42.5896 125.18 43.3542ZM120.747 43.3542C120.747 42.9418 120.721 42.5079 120.67 42.0526C120.627 41.5887 120.549 41.1376 120.438 40.6995C120.326 40.2528 120.171 39.8275 119.974 39.4237C119.785 39.0113 119.549 38.6548 119.265 38.3541C118.982 38.0448 118.642 37.8 118.247 37.6196C117.852 37.4306 117.392 37.3361 116.868 37.3361C116.37 37.3361 115.927 37.4306 115.541 37.6196C115.154 37.8086 114.815 38.062 114.523 38.3799C114.239 38.6892 113.999 39.05 113.801 39.4624C113.612 39.8747 113.457 40.3043 113.337 40.751C113.217 41.1892 113.131 41.6359 113.079 42.0913C113.028 42.538 113.002 42.959 113.002 43.3542C113.002 43.7494 113.028 44.1746 113.079 44.63C113.131 45.0767 113.217 45.5234 113.337 45.9702C113.457 46.4169 113.612 46.8465 113.801 47.2589C113.999 47.6626 114.239 48.0235 114.523 48.3413C114.815 48.6506 115.154 48.8998 115.541 49.0888C115.927 49.2778 116.37 49.3723 116.868 49.3723C117.384 49.3723 117.839 49.2821 118.234 49.1017C118.629 48.9127 118.969 48.6635 119.252 48.3542C119.544 48.0449 119.785 47.6884 119.974 47.2846C120.163 46.8808 120.313 46.4556 120.425 46.0088C120.545 45.5621 120.627 45.1111 120.67 44.6557C120.721 44.2004 120.747 43.7665 120.747 43.3542Z" fill="#F1F5F8"/>
<path d="M140.593 37.2587L138.144 41.3181C138.041 40.9744 137.908 40.5878 137.745 40.1582C137.581 39.7287 137.38 39.3292 137.139 38.9598C136.898 38.5818 136.611 38.2682 136.276 38.0191C135.941 37.7613 135.554 37.6324 135.116 37.6324C134.712 37.6324 134.36 37.7355 134.059 37.9417C133.767 38.1479 133.518 38.4185 133.312 38.7536C133.105 39.0801 132.934 39.4538 132.796 39.8747C132.667 40.2871 132.564 40.7081 132.487 41.1376C132.418 41.5586 132.371 41.9667 132.345 42.3619C132.319 42.7485 132.306 43.0835 132.306 43.3671V50.8285H127.938V35.9443H129.613L131.379 39.4108C131.619 38.8524 131.894 38.3412 132.203 37.8773C132.513 37.4048 132.869 37.001 133.273 36.6659C133.677 36.3223 134.132 36.056 134.639 35.867C135.154 35.678 135.734 35.5835 136.379 35.5835C136.714 35.5835 137.087 35.6135 137.5 35.6737C137.912 35.7252 138.316 35.8197 138.711 35.9572C139.106 36.086 139.471 36.2579 139.807 36.4726C140.142 36.6874 140.404 36.9494 140.593 37.2587Z" fill="#F1F5F8"/>
<path d="M145.618 43.7665C146.151 43.8868 146.684 43.9813 147.216 44.05C147.749 44.1188 148.286 44.1531 148.827 44.1531C149.394 44.1531 149.918 44.1016 150.399 43.9985C150.889 43.8868 151.31 43.7064 151.662 43.4573C152.023 43.1995 152.307 42.8602 152.513 42.4392C152.719 42.0182 152.822 41.4942 152.822 40.867C152.822 40.3601 152.753 39.8962 152.616 39.4753C152.479 39.0543 152.272 38.6935 151.997 38.3928C151.731 38.0921 151.4 37.8601 151.005 37.6969C150.61 37.5251 150.15 37.4391 149.626 37.4391C149.137 37.4391 148.694 37.5294 148.299 37.7098C147.912 37.8902 147.569 38.135 147.268 38.4443C146.976 38.745 146.722 39.0972 146.508 39.501C146.301 39.9048 146.13 40.3258 145.992 40.7639C145.855 41.2021 145.756 41.6445 145.696 42.0913C145.636 42.538 145.606 42.959 145.606 43.3542C145.606 43.4229 145.606 43.4916 145.606 43.5604C145.606 43.6291 145.61 43.6978 145.618 43.7665ZM156.353 40.8284C156.353 41.4383 156.254 41.9839 156.057 42.465C155.859 42.9375 155.589 43.3542 155.245 43.715C154.91 44.0758 154.519 44.3808 154.072 44.63C153.625 44.8791 153.149 45.0853 152.642 45.2485C152.135 45.4032 151.611 45.5148 151.07 45.5836C150.537 45.6523 150.017 45.6867 149.51 45.6867C148.866 45.6867 148.23 45.6437 147.603 45.5578C146.976 45.4633 146.357 45.3172 145.747 45.1197C145.842 45.6867 145.992 46.2279 146.198 46.7434C146.405 47.2503 146.679 47.697 147.023 48.0836C147.367 48.4616 147.788 48.7623 148.286 48.9857C148.793 49.209 149.39 49.3207 150.077 49.3207C150.533 49.3207 150.966 49.252 151.379 49.1145C151.791 48.9771 152.169 48.7838 152.513 48.5346C152.857 48.2855 153.157 47.9891 153.415 47.6455C153.681 47.3018 153.896 46.9195 154.059 46.4985L155.941 47.1944C155.657 47.8731 155.266 48.4616 154.768 48.9599C154.278 49.4496 153.72 49.8577 153.093 50.1841C152.474 50.502 151.813 50.7383 151.108 50.8929C150.412 51.0476 149.721 51.1249 149.033 51.1249C147.899 51.1249 146.851 50.9359 145.889 50.5579C144.927 50.1713 144.098 49.6343 143.402 48.947C142.706 48.2597 142.161 47.4393 141.765 46.4856C141.37 45.532 141.173 44.4882 141.173 43.3542C141.173 42.2201 141.37 41.1763 141.765 40.2227C142.161 39.2691 142.706 38.4486 143.402 37.7613C144.098 37.074 144.927 36.5414 145.889 36.1634C146.851 35.7768 147.899 35.5835 149.033 35.5835C149.583 35.5835 150.146 35.6221 150.722 35.6994C151.297 35.7768 151.856 35.9013 152.397 36.0731C152.938 36.2364 153.449 36.4512 153.93 36.7175C154.412 36.9838 154.828 37.3146 155.18 37.7098C155.541 38.0964 155.825 38.5474 156.031 39.0629C156.246 39.5783 156.353 40.1668 156.353 40.8284Z" fill="#F1F5F8"/>
</g>
</svg>
